<svg xmlns="http://www.w3.org/2000/svg" version="1.0" viewBox="20.72 130.54 289.87 105.33"><path fill="#FFF202" d="M 58.574219 197.894531 C 74.378906 193.421875 83.566406 176.984375 79.097656 161.175781 C 74.625 145.371094 58.183594 136.179688 42.378906 140.652344 C 26.570312 145.125 17.382812 161.566406 21.855469 177.371094 C 26.328125 193.179688 42.765625 202.367188 58.574219 197.894531"/><path fill="#EC0C8C" d="M 83.464844 211.808594 C 99.273438 207.335938 108.460938 190.898438 103.988281 175.089844 C 99.519531 159.285156 83.078125 150.09375 67.269531 154.566406 C 51.464844 159.039062 42.277344 175.480469 46.746094 191.285156 C 51.21875 207.09375 67.660156 216.28125 83.464844 211.808594"/><path fill="#00AEEF" d="M 108.359375 225.722656 C 124.167969 221.25 133.355469 204.8125 128.882812 189.003906 C 124.410156 173.199219 107.972656 164.007812 92.164062 168.480469 C 76.359375 172.953125 67.167969 189.394531 71.640625 205.199219 C 76.113281 221.007812 92.554688 230.195312 108.359375 225.722656"/><path d="M 125.457031 202.472656 C 124.832031 200.335938 124.25 198.082031 123.542969 196.089844 C 123.519531 195.5625 122.890625 193.785156 122.78125 192.960938 C 122.574219 192.414062 122.433594 191.847656 122.292969 191.675781 L 122.140625 191.128906 C 120.511719 185.253906 118.925781 179.578125 117.179688 173.71875 C 116.710938 172.070312 116.234375 170.445312 115.765625 168.796875 C 115.613281 168.378906 115.472656 167.9375 115.324219 167.480469 C 114.730469 165.441406 114.207031 163.472656 113.65625 161.527344 C 113.234375 159.902344 112.777344 158.234375 112.28125 156.59375 C 112.269531 156.5625 112.292969 156.574219 112.296875 156.589844 C 111.851562 155.203125 111.242188 153.183594 110.804688 151.511719 L 110.46875 150.574219 L 109.710938 147.886719 C 109.046875 145.421875 108.386719 142.957031 107.6875 140.484375 C 106.824219 137.4375 105.953125 134.355469 105.101562 131.285156 L 104.890625 130.542969 L 104.363281 130.691406 L 104.488281 131.136719 L 104.570312 131.113281 L 104.65625 131.410156 C 104.75 131.742188 104.863281 132.082031 104.960938 132.429688 C 105.101562 132.921875 105.246094 133.433594 105.40625 133.941406 L 106.277344 137.023438 C 106.84375 139.015625 107.421875 141.003906 108.039062 142.929688 L 107.9375 142.816406 C 108.109375 143.304688 108.257812 143.832031 108.425781 144.351562 C 108.507812 144.648438 108.609375 144.941406 108.695312 145.253906 C 109.246094 147.128906 109.734375 149.109375 110.316406 150.972656 L 110.230469 150.800781 C 110.964844 153.460938 111.707031 156.027344 112.445312 158.558594 C 112.785156 159.761719 113.109375 160.96875 113.464844 162.167969 C 114.199219 164.828125 114.75 166.59375 115.507812 169.261719 L 115.460938 169.347656 C 116.957031 173.765625 117.925781 178.8125 119.492188 183.40625 L 119.316406 183.101562 C 119.652344 183.789062 120.0625 185.933594 120.203125 185.609375 L 120.371094 186.449219 C 121.546875 189.535156 121.871094 192.257812 123.152344 196.09375 L 123.03125 195.859375 C 123.359375 196.890625 123.734375 198.082031 123.898438 198.855469 C 123.863281 198.742188 123.863281 198.792969 123.777344 198.550781 C 124.492188 201.839844 125.726562 205.386719 126.699219 208.816406 L 126.488281 208.445312 C 126.660156 208.933594 126.859375 209.570312 127.054688 210.261719 L 127.644531 212.355469 C 127.597656 212.371094 127.558594 212.363281 127.492188 212.382812 L 127.464844 212.40625 L 127.335938 212.515625 L 127.234375 212.542969 C 126.953125 212.550781 127.011719 212.570312 126.878906 212.539062 C 125.519531 212.902344 125.300781 212.824219 124.328125 213.027344 C 124.328125 213.027344 124.34375 213.023438 124.332031 213.042969 C 123.703125 213.347656 122.777344 213.535156 122.246094 213.667969 L 122.019531 213.679688 C 121.671875 213.652344 120.542969 214.328125 120.90625 214.03125 C 118.183594 214.855469 115.046875 215.742188 111.996094 216.605469 C 111.59375 216.808594 109.65625 217.265625 110.367188 217.207031 C 109.5625 217.257812 107.277344 217.867188 106.4375 218.105469 C 106.464844 218.082031 106.492188 218.054688 106.625 218.019531 C 104.933594 218.265625 104.734375 218.765625 103.128906 218.9375 C 102.929688 219.1875 100.328125 219.675781 99.507812 220.121094 C 99.316406 220.140625 99.238281 220.109375 99.296875 220.074219 C 96.519531 220.824219 93.460938 221.671875 91.128906 222.296875 C 89.179688 223.023438 86.277344 223.597656 84.605469 224.300781 C 83.171875 224.652344 80.839844 225.222656 78.886719 225.867188 L 79.074219 225.777344 C 76.835938 226.429688 74.03125 227.222656 72.539062 227.804688 C 71.820312 227.777344 70.859375 228.101562 69.871094 228.308594 C 68.398438 228.832031 65.371094 229.65625 63.105469 230.402344 C 62.730469 230.402344 61.238281 230.984375 61.082031 230.867188 C 58.816406 231.617188 56.355469 232.363281 53.804688 233.105469 L 49.929688 234.199219 L 47.980469 234.734375 L 47 234.992188 L 46.539062 235.125 L 46.371094 235.15625 L 46.402344 235.144531 C 45.929688 233.285156 45.464844 231.457031 45.003906 229.703125 C 44.882812 229.398438 44.761719 229.09375 44.621094 228.78125 C 43.980469 226.644531 43.292969 224.277344 42.621094 221.90625 C 42.484375 221.355469 42.339844 220.792969 42.144531 220.222656 L 42.042969 219.859375 L 42.050781 219.769531 L 41.816406 218.875 C 41.839844 218.886719 41.871094 218.878906 41.90625 218.9375 L 41.957031 219.121094 L 41.910156 218.953125 C 41.941406 219 41.976562 219.0625 42.003906 219.160156 L 40.691406 214.511719 C 40.714844 214.539062 40.742188 214.570312 40.757812 214.6875 C 40.570312 213.460938 40.265625 213.011719 40.050781 212.253906 L 40.007812 212.105469 C 39.933594 211.84375 39.886719 211.554688 39.835938 211.175781 C 39.609375 211.007812 39.167969 208.75 38.746094 207.765625 L 38.640625 207.402344 C 38.65625 207.328125 38.664062 207.289062 38.695312 207.335938 C 37.945312 204.554688 37.09375 201.484375 36.460938 199.121094 C 35.726562 197.15625 35.148438 194.238281 34.449219 192.585938 C 34.09375 191.140625 33.523438 188.808594 32.878906 186.835938 L 32.964844 187.027344 C 32.3125 184.773438 31.519531 181.972656 30.933594 180.464844 C 30.960938 179.742188 30.636719 178.785156 30.425781 177.792969 C 29.902344 176.324219 29.078125 173.28125 28.332031 171.019531 C 28.332031 170.644531 27.761719 169.132812 27.859375 168.980469 C 27.113281 166.71875 26.359375 164.242188 25.617188 161.675781 L 24.515625 157.789062 L 23.980469 155.835938 L 23.722656 154.859375 L 23.59375 154.398438 L 23.5625 154.230469 L 23.726562 154.183594 C 25.636719 153.695312 27.515625 153.21875 29.328125 152.757812 C 30.164062 152.433594 31.089844 151.992188 31.933594 151.648438 C 32.023438 151.640625 32.027344 151.65625 31.828125 151.714844 C 33.074219 151.324219 34.269531 151.148438 35.511719 150.761719 C 35.5 150.78125 35.5 150.78125 35.3125 150.871094 C 36.464844 150.472656 37.753906 150.304688 39.105469 149.796875 L 39.199219 149.804688 L 40.058594 149.507812 C 40.050781 149.546875 40.035156 149.621094 39.773438 149.699219 C 50.441406 146.730469 61.359375 143.394531 72.304688 140.332031 L 71.90625 140.5 L 74.007812 139.816406 C 73.996094 139.835938 73.902344 139.878906 73.808594 139.925781 C 76.554688 139.238281 79.335938 138.308594 81.980469 137.578125 C 81.96875 137.597656 81.585938 137.761719 81.957031 137.691406 C 83.882812 137.003906 85.15625 136.964844 86.054688 136.425781 C 86.15625 136.414062 86.21875 136.449219 86.03125 136.539062 C 91.46875 134.910156 97.058594 133.328125 102.5625 131.824219 C 103.179688 131.613281 103.835938 131.410156 104.488281 131.191406 L 104.355469 130.730469 C 100.738281 131.734375 97.113281 132.761719 93.480469 133.773438 C 81.898438 136.976562 71.726562 139.679688 60.550781 143.179688 C 60.5625 143.15625 60.457031 143.167969 60.75 143.066406 C 57.515625 144.035156 54.539062 144.789062 51.488281 145.707031 L 51.5 145.6875 C 43.996094 148.003906 35.722656 150.113281 28.457031 152.382812 L 23.011719 153.921875 L 23.179688 154.515625 C 23.675781 156.261719 24.195312 158.039062 24.703125 159.835938 C 26.234375 165.878906 27.960938 171.78125 29.761719 177.714844 C 31.929688 185.058594 33.71875 192.261719 35.863281 199.589844 C 37.371094 205.234375 39.203125 211.015625 40.886719 216.789062 C 41.433594 218.964844 41.980469 221.214844 42.625 223.433594 L 42.628906 223.253906 C 42.746094 223.917969 42.960938 224.621094 43.203125 225.28125 C 43.410156 226.078125 43.636719 226.886719 43.882812 227.6875 C 43.886719 227.703125 43.898438 227.738281 43.886719 227.757812 L 43.820312 227.597656 C 43.859375 227.925781 43.996094 228.277344 44.148438 228.628906 C 44.238281 228.941406 44.339844 229.234375 44.425781 229.546875 L 45.195312 232.070312 C 45.34375 232.722656 45.960938 234.273438 45.726562 234.394531 C 45.566406 233.832031 45.859375 235.300781 45.4375 234.066406 C 45.464844 234.21875 45.566406 234.582031 45.671875 234.960938 C 45.707031 235.074219 45.753906 235.1875 45.78125 235.285156 C 45.863281 235.511719 45.945312 235.667969 45.964844 235.609375 C 46.132812 235.703125 46.394531 236.25 46.269531 235.433594 L 46.632812 235.328125 C 47.027344 235.21875 47.425781 235.105469 47.824219 235.011719 C 48.375 234.871094 48.90625 234.738281 49.40625 234.617188 C 58.839844 232.320312 67.816406 229.550781 77.089844 226.695312 C 85.039062 224.570312 92.878906 222.066406 100.628906 220.050781 C 96.382812 221.289062 92.195312 222.546875 87.824219 223.835938 C 87.917969 223.792969 87.960938 223.761719 88.058594 223.714844 C 87.734375 223.84375 87.386719 223.996094 87.003906 224.085938 C 86.898438 224.097656 87.09375 224.023438 87.21875 223.972656 C 85.730469 224.25 83.003906 225.253906 82.070312 225.410156 C 81.664062 225.542969 81.496094 225.644531 81.738281 225.628906 C 76.40625 227.171875 70.691406 228.824219 65.261719 230.46875 C 64.992188 230.527344 64.933594 230.507812 65.003906 230.433594 C 60.410156 231.964844 55.507812 233.265625 50.730469 234.578125 C 50.5625 234.679688 51.226562 234.511719 50.78125 234.691406 C 52.332031 234.320312 53.546875 233.765625 54.960938 233.472656 L 54.792969 233.574219 C 55.808594 233.320312 54.953125 233.382812 56.027344 233.152344 C 56.453125 233.085938 55.945312 233.246094 56.132812 233.210938 C 58.273438 232.589844 60.53125 232.003906 62.519531 231.296875 C 63.046875 231.273438 64.828125 230.644531 65.652344 230.535156 C 66.199219 230.328125 66.75 230.191406 66.941406 230.046875 C 74.480469 227.984375 82.132812 225.695312 89.835938 223.515625 C 93.382812 222.261719 97.765625 221.324219 102.03125 220.03125 C 102.0625 220.019531 102.050781 220.042969 102.035156 220.046875 C 103.421875 219.601562 105.441406 218.992188 107.117188 218.554688 L 108.507812 218.054688 C 111.707031 217.21875 114.933594 216.34375 118.148438 215.433594 L 126.445312 213.085938 C 126.402344 213.117188 126.257812 213.175781 125.949219 213.28125 C 126.199219 213.226562 127.140625 212.960938 127.589844 212.78125 C 127.652344 212.761719 127.714844 212.726562 127.765625 212.714844 L 128.09375 212.621094 L 128.039062 212.421875 C 128.125 212.34375 127.945312 212.414062 128 212.289062 L 126.878906 208.320312 C 127.015625 208.546875 127.148438 209.398438 127.230469 209.25 C 127.117188 208.660156 126.964844 208.4375 126.878906 208.320312 C 126.210938 205.960938 125.554688 203.585938 124.890625 201.226562 C 124.480469 199.722656 124.0625 198.238281 123.664062 196.769531 C 124.78125 200.402344 125.773438 204.164062 126.796875 207.84375 C 126.898438 208.011719 126.726562 207.347656 126.90625 207.792969 C 126.539062 206.242188 125.984375 205.03125 125.691406 203.617188 L 125.789062 203.785156 C 125.539062 202.769531 125.601562 203.625 125.371094 202.550781 C 125.328125 202.152344 125.496094 202.675781 125.457031 202.472656 M 122.074219 213.949219 L 122.4375 213.847656 C 122.351562 213.851562 122.238281 213.886719 122.074219 213.949219"/><g><g><g><path d="M 13.15625 -28.796875 C 16.851562 -28.796875 20.1875 -27.816406 23.15625 -25.859375 L 21.15625 -21.609375 C 18.238281 -23.378906 15.445312 -24.265625 12.78125 -24.265625 C 11.34375 -24.265625 10.207031 -24.003906 9.375 -23.484375 C 8.539062 -22.960938 8.125 -22.222656 8.125 -21.265625 C 8.125 -20.316406 8.503906 -19.507812 9.265625 -18.84375 C 10.035156 -18.175781 10.988281 -17.6875 12.125 -17.375 C 13.269531 -17.0625 14.507812 -16.664062 15.84375 -16.1875 C 17.175781 -15.71875 18.414062 -15.21875 19.5625 -14.6875 C 20.707031 -14.15625 21.65625 -13.320312 22.40625 -12.1875 C 23.15625 -11.0625 23.53125 -9.695312 23.53125 -8.09375 C 23.53125 -5.582031 22.523438 -3.578125 20.515625 -2.078125 C 18.515625 -0.585938 15.925781 0.15625 12.75 0.15625 C 10.5625 0.15625 8.445312 -0.25 6.40625 -1.0625 C 4.363281 -1.875 2.582031 -2.976562 1.0625 -4.375 L 3.140625 -8.53125 C 4.585938 -7.195312 6.175781 -6.171875 7.90625 -5.453125 C 9.632812 -4.734375 11.273438 -4.375 12.828125 -4.375 C 14.515625 -4.375 15.828125 -4.675781 16.765625 -5.28125 C 17.703125 -5.894531 18.171875 -6.75 18.171875 -7.84375 C 18.171875 -8.820312 17.789062 -9.644531 17.03125 -10.3125 C 16.269531 -10.976562 15.316406 -11.46875 14.171875 -11.78125 C 13.023438 -12.09375 11.785156 -12.472656 10.453125 -12.921875 C 9.117188 -13.367188 7.878906 -13.84375 6.734375 -14.34375 C 5.597656 -14.851562 4.644531 -15.664062 3.875 -16.78125 C 3.113281 -17.90625 2.734375 -19.253906 2.734375 -20.828125 C 2.734375 -23.253906 3.6875 -25.1875 5.59375 -26.625 C 7.5 -28.070312 10.019531 -28.796875 13.15625 -28.796875 Z M 13.15625 -28.796875" transform="translate(99.368 182.064)"/></g></g></g><g><g><g><path d="M 12.375 -21.890625 C 16.289062 -21.890625 19.285156 -20.707031 21.359375 -18.34375 L 18.78125 -15.3125 C 17.15625 -16.976562 15.085938 -17.796875 12.578125 -17.765625 C 10.703125 -17.765625 9.15625 -17.117188 7.9375 -15.828125 C 6.726562 -14.535156 6.125 -12.867188 6.125 -10.828125 C 6.125 -8.785156 6.726562 -7.113281 7.9375 -5.8125 C 9.15625 -4.519531 10.703125 -3.875 12.578125 -3.875 C 15.359375 -3.875 17.5 -4.75 19 -6.5 L 21.609375 -3.875 C 19.566406 -1.1875 16.488281 0.15625 12.375 0.15625 C 9.132812 0.15625 6.5 -0.851562 4.46875 -2.875 C 2.4375 -4.90625 1.421875 -7.554688 1.421875 -10.828125 C 1.421875 -14.117188 2.4375 -16.785156 4.46875 -18.828125 C 6.5 -20.867188 9.132812 -21.890625 12.375 -21.890625 Z M 12.375 -21.890625" transform="translate(124.77 182.064)"/></g></g></g><g><g><g><path d="M 8.171875 -21.734375 L 8.171875 -17.40625 C 9.671875 -20.394531 12.175781 -21.890625 15.6875 -21.890625 L 15.6875 -17.40625 C 13.53125 -17.507812 11.785156 -17.003906 10.453125 -15.890625 C 9.117188 -14.773438 8.359375 -13.265625 8.171875 -11.359375 L 8.171875 0 L 3.46875 0 L 3.46875 -21.734375 Z M 8.171875 -21.734375" transform="translate(147.804 182.064)"/></g></g></g><g><g><g><path d="M 12.78125 -21.890625 C 16.132812 -21.890625 18.859375 -20.875 20.953125 -18.84375 C 23.046875 -16.820312 24.09375 -14.160156 24.09375 -10.859375 C 24.09375 -7.597656 23.046875 -4.945312 20.953125 -2.90625 C 18.859375 -0.863281 16.132812 0.15625 12.78125 0.15625 C 9.40625 0.15625 6.664062 -0.863281 4.5625 -2.90625 C 2.46875 -4.945312 1.421875 -7.597656 1.421875 -10.859375 C 1.421875 -14.160156 2.46875 -16.820312 4.5625 -18.84375 C 6.664062 -20.875 9.40625 -21.890625 12.78125 -21.890625 Z M 12.78125 -17.84375 C 10.820312 -17.84375 9.222656 -17.1875 7.984375 -15.875 C 6.742188 -14.570312 6.125 -12.890625 6.125 -10.828125 C 6.125 -8.722656 6.742188 -7.015625 7.984375 -5.703125 C 9.222656 -4.398438 10.820312 -3.75 12.78125 -3.75 C 14.738281 -3.75 16.332031 -4.398438 17.5625 -5.703125 C 18.789062 -7.015625 19.40625 -8.722656 19.40625 -10.828125 C 19.40625 -12.890625 18.785156 -14.570312 17.546875 -15.875 C 16.304688 -17.1875 14.71875 -17.84375 12.78125 -17.84375 Z M 12.78125 -17.84375" transform="translate(163.895 182.064)"/></g></g></g><g><g><g><path d="M 8.375 0 L 3.671875 0 L 3.671875 -30.3125 L 8.375 -30.3125 Z M 8.375 0" transform="translate(189.42 182.064)"/></g></g></g><g><g><g><path d="M 12.421875 -21.890625 C 16.148438 -21.890625 18.847656 -20.765625 20.515625 -18.515625 C 22.191406 -16.273438 22.882812 -13.125 22.59375 -9.0625 L 6.171875 -9.0625 C 6.546875 -7.375 7.332031 -6.046875 8.53125 -5.078125 C 9.726562 -4.117188 11.1875 -3.640625 12.90625 -3.640625 C 15.351562 -3.640625 17.394531 -4.484375 19.03125 -6.171875 L 21.53125 -3.515625 C 19.289062 -1.066406 16.289062 0.15625 12.53125 0.15625 C 9.1875 0.15625 6.5 -0.851562 4.46875 -2.875 C 2.4375 -4.90625 1.421875 -7.550781 1.421875 -10.8125 C 1.421875 -14.082031 2.441406 -16.738281 4.484375 -18.78125 C 6.535156 -20.820312 9.179688 -21.859375 12.421875 -21.890625 Z M 6.078125 -12.5 L 18.5 -12.5 C 18.414062 -14.238281 17.828125 -15.613281 16.734375 -16.625 C 15.648438 -17.632812 14.222656 -18.140625 12.453125 -18.140625 C 10.742188 -18.140625 9.320312 -17.632812 8.1875 -16.625 C 7.0625 -15.613281 6.359375 -14.238281 6.078125 -12.5 Z M 6.078125 -12.5" transform="translate(201.468 182.064)"/></g></g></g><g><g><g><path d="M 22.828125 0 L 13.4375 -12.625 L 8.578125 -7.265625 L 8.578125 0 L 3.75 0 L 3.75 -28.59375 L 8.578125 -28.59375 L 8.578125 -13.8125 L 22.21875 -28.59375 L 27.890625 -28.59375 L 16.828125 -16.375 L 28.625 0 Z M 22.828125 0" transform="translate(225.482 182.064)"/></g></g></g><g><g><g><path d="M 16.5 0 L 16.5 -2.65625 C 14.945312 -0.75 12.550781 0.203125 9.3125 0.203125 C 7 0.203125 5.144531 -0.425781 3.75 -1.6875 C 2.363281 -2.957031 1.671875 -4.570312 1.671875 -6.53125 C 1.671875 -8.519531 2.390625 -10.097656 3.828125 -11.265625 C 5.273438 -12.441406 7.296875 -13.039062 9.890625 -13.0625 L 16.453125 -13.0625 L 16.453125 -13.71875 C 16.453125 -15.113281 16.007812 -16.191406 15.125 -16.953125 C 14.25 -17.710938 12.960938 -18.09375 11.265625 -18.09375 C 9.171875 -18.09375 7.035156 -17.359375 4.859375 -15.890625 L 2.9375 -19.15625 C 4.601562 -20.132812 6.09375 -20.832031 7.40625 -21.25 C 8.726562 -21.675781 10.359375 -21.890625 12.296875 -21.890625 C 15.066406 -21.890625 17.210938 -21.210938 18.734375 -19.859375 C 20.265625 -18.515625 21.046875 -16.644531 21.078125 -14.25 L 21.109375 0 Z M 10.296875 -3.515625 C 11.953125 -3.515625 13.359375 -3.898438 14.515625 -4.671875 C 15.671875 -5.453125 16.316406 -6.441406 16.453125 -7.640625 L 16.453125 -9.640625 L 10.578125 -9.640625 C 9.023438 -9.640625 7.882812 -9.414062 7.15625 -8.96875 C 6.4375 -8.519531 6.078125 -7.773438 6.078125 -6.734375 C 6.078125 -5.753906 6.453125 -4.972656 7.203125 -4.390625 C 7.953125 -3.804688 8.984375 -3.515625 10.296875 -3.515625 Z M 10.296875 -3.515625" transform="translate(254.805 182.064)"/></g></g></g><g><g><g><path d="M 8.171875 -21.734375 L 8.171875 -17.40625 C 9.671875 -20.394531 12.175781 -21.890625 15.6875 -21.890625 L 15.6875 -17.40625 C 13.53125 -17.507812 11.785156 -17.003906 10.453125 -15.890625 C 9.117188 -14.773438 8.359375 -13.265625 8.171875 -11.359375 L 8.171875 0 L 3.46875 0 L 3.46875 -21.734375 Z M 8.171875 -21.734375" transform="translate(278.737 182.064)"/></g></g></g><g><g><g><path d="M 14.578125 -4.984375 L 15.765625 -1.390625 C 13.960938 -0.328125 12.175781 0.203125 10.40625 0.203125 C 8.644531 0.203125 7.191406 -0.328125 6.046875 -1.390625 C 4.898438 -2.453125 4.328125 -4.03125 4.328125 -6.125 L 4.328125 -17.40625 L 1.265625 -17.40625 L 1.265625 -20.90625 L 4.328125 -20.90625 L 4.328125 -26.875 L 8.984375 -26.875 L 8.984375 -20.90625 L 15.390625 -20.90625 L 15.390625 -17.40625 L 8.984375 -17.40625 L 8.984375 -6.984375 C 8.984375 -5.890625 9.171875 -5.125 9.546875 -4.6875 C 9.929688 -4.257812 10.519531 -4.046875 11.3125 -4.046875 C 12.1875 -4.046875 13.273438 -4.359375 14.578125 -4.984375 Z M 14.578125 -4.984375" transform="translate(294.828 182.064)"/></g></g></g><g><g><g><path d="M 11.078125 -4.796875 L 2.328125 -4.796875 C 2.398438 -3.703125 2.8125 -2.820312 3.5625 -2.15625 C 4.320312 -1.488281 5.28125 -1.15625 6.4375 -1.15625 C 7.082031 -1.15625 7.675781 -1.269531 8.21875 -1.5 C 8.769531 -1.726562 9.242188 -2.070312 9.640625 -2.53125 L 10.4375 -1.609375 C 9.96875 -1.054688 9.382812 -0.632812 8.6875 -0.34375 C 8 -0.0507812 7.238281 0.09375 6.40625 0.09375 C 5.332031 0.09375 4.378906 -0.128906 3.546875 -0.578125 C 2.722656 -1.035156 2.078125 -1.671875 1.609375 -2.484375 C 1.148438 -3.296875 0.921875 -4.210938 0.921875 -5.234375 C 0.921875 -6.242188 1.140625 -7.15625 1.578125 -7.96875 C 2.023438 -8.78125 2.632812 -9.410156 3.40625 -9.859375 C 4.1875 -10.304688 5.054688 -10.53125 6.015625 -10.53125 C 6.984375 -10.53125 7.851562 -10.304688 8.625 -9.859375 C 9.394531 -9.410156 10 -8.785156 10.4375 -7.984375 C 10.875 -7.179688 11.09375 -6.265625 11.09375 -5.234375 Z M 6.015625 -9.328125 C 5.015625 -9.328125 4.171875 -9.003906 3.484375 -8.359375 C 2.804688 -7.710938 2.421875 -6.875 2.328125 -5.84375 L 9.734375 -5.84375 C 9.640625 -6.875 9.25 -7.710938 8.5625 -8.359375 C 7.882812 -9.003906 7.035156 -9.328125 6.015625 -9.328125 Z M 6.015625 -9.328125" transform="translate(143.018 215.195)"/></g></g></g><g><g><g><path d="M 5.625 -10.53125 C 6.988281 -10.53125 8.035156 -10.1875 8.765625 -9.5 C 9.492188 -8.820312 9.859375 -7.816406 9.859375 -6.484375 L 9.859375 0 L 8.5 0 L 8.5 -1.625 C 8.1875 -1.082031 7.722656 -0.660156 7.109375 -0.359375 C 6.492188 -0.0546875 5.757812 0.09375 4.90625 0.09375 C 3.738281 0.09375 2.8125 -0.179688 2.125 -0.734375 C 1.4375 -1.285156 1.09375 -2.019531 1.09375 -2.9375 C 1.09375 -3.820312 1.410156 -4.535156 2.046875 -5.078125 C 2.691406 -5.628906 3.71875 -5.90625 5.125 -5.90625 L 8.453125 -5.90625 L 8.453125 -6.53125 C 8.453125 -7.4375 8.195312 -8.125 7.6875 -8.59375 C 7.1875 -9.0625 6.453125 -9.296875 5.484375 -9.296875 C 4.816406 -9.296875 4.175781 -9.1875 3.5625 -8.96875 C 2.957031 -8.75 2.4375 -8.445312 2 -8.0625 L 1.375 -9.125 C 1.90625 -9.570312 2.539062 -9.914062 3.28125 -10.15625 C 4.019531 -10.40625 4.800781 -10.53125 5.625 -10.53125 Z M 5.125 -1.015625 C 5.914062 -1.015625 6.597656 -1.195312 7.171875 -1.5625 C 7.742188 -1.925781 8.171875 -2.453125 8.453125 -3.140625 L 8.453125 -4.84375 L 5.171875 -4.84375 C 3.378906 -4.84375 2.484375 -4.222656 2.484375 -2.984375 C 2.484375 -2.367188 2.710938 -1.882812 3.171875 -1.53125 C 3.640625 -1.1875 4.289062 -1.015625 5.125 -1.015625 Z M 5.125 -1.015625" transform="translate(155.025 215.195)"/></g></g></g><g><g><g><path d="M 4.765625 0.09375 C 3.921875 0.09375 3.109375 -0.0234375 2.328125 -0.265625 C 1.554688 -0.515625 0.953125 -0.820312 0.515625 -1.1875 L 1.15625 -2.3125 C 1.59375 -1.957031 2.140625 -1.671875 2.796875 -1.453125 C 3.460938 -1.242188 4.15625 -1.140625 4.875 -1.140625 C 5.820312 -1.140625 6.523438 -1.285156 6.984375 -1.578125 C 7.441406 -1.878906 7.671875 -2.300781 7.671875 -2.84375 C 7.671875 -3.226562 7.546875 -3.53125 7.296875 -3.75 C 7.046875 -3.96875 6.726562 -4.128906 6.34375 -4.234375 C 5.957031 -4.347656 5.445312 -4.460938 4.8125 -4.578125 C 3.957031 -4.734375 3.269531 -4.894531 2.75 -5.0625 C 2.238281 -5.226562 1.800781 -5.507812 1.4375 -5.90625 C 1.070312 -6.300781 0.890625 -6.847656 0.890625 -7.546875 C 0.890625 -8.421875 1.253906 -9.132812 1.984375 -9.6875 C 2.710938 -10.25 3.726562 -10.53125 5.03125 -10.53125 C 5.707031 -10.53125 6.378906 -10.441406 7.046875 -10.265625 C 7.722656 -10.085938 8.28125 -9.851562 8.71875 -9.5625 L 8.109375 -8.421875 C 7.242188 -9.023438 6.21875 -9.328125 5.03125 -9.328125 C 4.125 -9.328125 3.441406 -9.164062 2.984375 -8.84375 C 2.535156 -8.53125 2.3125 -8.113281 2.3125 -7.59375 C 2.3125 -7.195312 2.4375 -6.878906 2.6875 -6.640625 C 2.945312 -6.398438 3.269531 -6.222656 3.65625 -6.109375 C 4.039062 -5.992188 4.570312 -5.878906 5.25 -5.765625 C 6.082031 -5.609375 6.75 -5.445312 7.25 -5.28125 C 7.757812 -5.125 8.191406 -4.851562 8.546875 -4.46875 C 8.898438 -4.082031 9.078125 -3.550781 9.078125 -2.875 C 9.078125 -1.96875 8.695312 -1.242188 7.9375 -0.703125 C 7.175781 -0.171875 6.117188 0.09375 4.765625 0.09375 Z M 4.765625 0.09375" transform="translate(166.753 215.195)"/></g></g></g><g><g><g><path d="M 10.75 -10.453125 L 5.53125 1.25 C 5.101562 2.226562 4.609375 2.921875 4.046875 3.328125 C 3.492188 3.742188 2.828125 3.953125 2.046875 3.953125 C 1.546875 3.953125 1.078125 3.875 0.640625 3.71875 C 0.203125 3.5625 -0.175781 3.320312 -0.5 3 L 0.15625 1.953125 C 0.6875 2.484375 1.320312 2.75 2.0625 2.75 C 2.539062 2.75 2.945312 2.613281 3.28125 2.34375 C 3.625 2.082031 3.941406 1.632812 4.234375 1 L 4.6875 -0.015625 L 0.015625 -10.453125 L 1.484375 -10.453125 L 5.421875 -1.5625 L 9.359375 -10.453125 Z M 10.75 -10.453125" transform="translate(176.474 215.195)"/></g></g></g><g><g><g><path d="M 4.765625 0.09375 C 3.921875 0.09375 3.109375 -0.0234375 2.328125 -0.265625 C 1.554688 -0.515625 0.953125 -0.820312 0.515625 -1.1875 L 1.15625 -2.3125 C 1.59375 -1.957031 2.140625 -1.671875 2.796875 -1.453125 C 3.460938 -1.242188 4.15625 -1.140625 4.875 -1.140625 C 5.820312 -1.140625 6.523438 -1.285156 6.984375 -1.578125 C 7.441406 -1.878906 7.671875 -2.300781 7.671875 -2.84375 C 7.671875 -3.226562 7.546875 -3.53125 7.296875 -3.75 C 7.046875 -3.96875 6.726562 -4.128906 6.34375 -4.234375 C 5.957031 -4.347656 5.445312 -4.460938 4.8125 -4.578125 C 3.957031 -4.734375 3.269531 -4.894531 2.75 -5.0625 C 2.238281 -5.226562 1.800781 -5.507812 1.4375 -5.90625 C 1.070312 -6.300781 0.890625 -6.847656 0.890625 -7.546875 C 0.890625 -8.421875 1.253906 -9.132812 1.984375 -9.6875 C 2.710938 -10.25 3.726562 -10.53125 5.03125 -10.53125 C 5.707031 -10.53125 6.378906 -10.441406 7.046875 -10.265625 C 7.722656 -10.085938 8.28125 -9.851562 8.71875 -9.5625 L 8.109375 -8.421875 C 7.242188 -9.023438 6.21875 -9.328125 5.03125 -9.328125 C 4.125 -9.328125 3.441406 -9.164062 2.984375 -8.84375 C 2.535156 -8.53125 2.3125 -8.113281 2.3125 -7.59375 C 2.3125 -7.195312 2.4375 -6.878906 2.6875 -6.640625 C 2.945312 -6.398438 3.269531 -6.222656 3.65625 -6.109375 C 4.039062 -5.992188 4.570312 -5.878906 5.25 -5.765625 C 6.082031 -5.609375 6.75 -5.445312 7.25 -5.28125 C 7.757812 -5.125 8.191406 -4.851562 8.546875 -4.46875 C 8.898438 -4.082031 9.078125 -3.550781 9.078125 -2.875 C 9.078125 -1.96875 8.695312 -1.242188 7.9375 -0.703125 C 7.175781 -0.171875 6.117188 0.09375 4.765625 0.09375 Z M 4.765625 0.09375" transform="translate(192.456 215.195)"/></g></g></g><g><g><g><path d="M 7.296875 -10.53125 C 8.609375 -10.53125 9.648438 -10.148438 10.421875 -9.390625 C 11.203125 -8.628906 11.59375 -7.519531 11.59375 -6.0625 L 11.59375 0 L 10.171875 0 L 10.171875 -5.921875 C 10.171875 -7.003906 9.898438 -7.832031 9.359375 -8.40625 C 8.816406 -8.976562 8.039062 -9.265625 7.03125 -9.265625 C 5.90625 -9.265625 5.015625 -8.925781 4.359375 -8.25 C 3.703125 -7.582031 3.375 -6.660156 3.375 -5.484375 L 3.375 0 L 1.96875 0 L 1.96875 -14.75 L 3.375 -14.75 L 3.375 -8.625 C 3.757812 -9.238281 4.289062 -9.707031 4.96875 -10.03125 C 5.644531 -10.363281 6.421875 -10.53125 7.296875 -10.53125 Z M 7.296875 -10.53125" transform="translate(202.176 215.195)"/></g></g></g><g><g><g><path d="M 6.234375 0.09375 C 5.234375 0.09375 4.328125 -0.128906 3.515625 -0.578125 C 2.710938 -1.035156 2.078125 -1.671875 1.609375 -2.484375 C 1.148438 -3.296875 0.921875 -4.210938 0.921875 -5.234375 C 0.921875 -6.242188 1.148438 -7.15625 1.609375 -7.96875 C 2.078125 -8.78125 2.710938 -9.410156 3.515625 -9.859375 C 4.328125 -10.304688 5.234375 -10.53125 6.234375 -10.53125 C 7.242188 -10.53125 8.148438 -10.304688 8.953125 -9.859375 C 9.765625 -9.410156 10.398438 -8.78125 10.859375 -7.96875 C 11.316406 -7.15625 11.546875 -6.242188 11.546875 -5.234375 C 11.546875 -4.210938 11.316406 -3.296875 10.859375 -2.484375 C 10.398438 -1.671875 9.765625 -1.035156 8.953125 -0.578125 C 8.148438 -0.128906 7.242188 0.09375 6.234375 0.09375 Z M 6.234375 -1.15625 C 6.984375 -1.15625 7.648438 -1.320312 8.234375 -1.65625 C 8.828125 -2 9.285156 -2.476562 9.609375 -3.09375 C 9.941406 -3.71875 10.109375 -4.429688 10.109375 -5.234375 C 10.109375 -6.023438 9.941406 -6.726562 9.609375 -7.34375 C 9.285156 -7.96875 8.828125 -8.445312 8.234375 -8.78125 C 7.648438 -9.125 6.984375 -9.296875 6.234375 -9.296875 C 5.492188 -9.296875 4.828125 -9.125 4.234375 -8.78125 C 3.648438 -8.445312 3.1875 -7.96875 2.84375 -7.34375 C 2.507812 -6.726562 2.34375 -6.023438 2.34375 -5.234375 C 2.34375 -4.429688 2.507812 -3.71875 2.84375 -3.09375 C 3.1875 -2.476562 3.648438 -2 4.234375 -1.65625 C 4.828125 -1.320312 5.492188 -1.15625 6.234375 -1.15625 Z M 6.234375 -1.15625" transform="translate(215.634 215.195)"/></g></g></g><g><g><g><path d="M 7.359375 -10.53125 C 8.335938 -10.53125 9.222656 -10.304688 10.015625 -9.859375 C 10.804688 -9.421875 11.425781 -8.796875 11.875 -7.984375 C 12.332031 -7.179688 12.5625 -6.265625 12.5625 -5.234375 C 12.5625 -4.179688 12.332031 -3.25 11.875 -2.4375 C 11.425781 -1.632812 10.804688 -1.007812 10.015625 -0.5625 C 9.234375 -0.125 8.347656 0.09375 7.359375 0.09375 C 6.503906 0.09375 5.734375 -0.078125 5.046875 -0.421875 C 4.367188 -0.773438 3.8125 -1.289062 3.375 -1.96875 L 3.375 3.859375 L 1.96875 3.859375 L 1.96875 -10.453125 L 3.3125 -10.453125 L 3.3125 -8.390625 C 3.738281 -9.078125 4.300781 -9.601562 5 -9.96875 C 5.695312 -10.34375 6.484375 -10.53125 7.359375 -10.53125 Z M 7.25 -1.15625 C 7.976562 -1.15625 8.640625 -1.320312 9.234375 -1.65625 C 9.835938 -2 10.304688 -2.476562 10.640625 -3.09375 C 10.984375 -3.71875 11.15625 -4.429688 11.15625 -5.234375 C 11.15625 -6.023438 10.984375 -6.726562 10.640625 -7.34375 C 10.304688 -7.957031 9.835938 -8.4375 9.234375 -8.78125 C 8.640625 -9.125 7.976562 -9.296875 7.25 -9.296875 C 6.507812 -9.296875 5.84375 -9.125 5.25 -8.78125 C 4.664062 -8.4375 4.203125 -7.957031 3.859375 -7.34375 C 3.523438 -6.726562 3.359375 -6.023438 3.359375 -5.234375 C 3.359375 -4.429688 3.523438 -3.71875 3.859375 -3.09375 C 4.203125 -2.476562 4.664062 -2 5.25 -1.65625 C 5.84375 -1.320312 6.507812 -1.15625 7.25 -1.15625 Z M 7.25 -1.15625" transform="translate(228.098 215.195)"/></g></g></g><g><g><g><path d="M 7.359375 -10.53125 C 8.335938 -10.53125 9.222656 -10.304688 10.015625 -9.859375 C 10.804688 -9.421875 11.425781 -8.796875 11.875 -7.984375 C 12.332031 -7.179688 12.5625 -6.265625 12.5625 -5.234375 C 12.5625 -4.179688 12.332031 -3.25 11.875 -2.4375 C 11.425781 -1.632812 10.804688 -1.007812 10.015625 -0.5625 C 9.234375 -0.125 8.347656 0.09375 7.359375 0.09375 C 6.503906 0.09375 5.734375 -0.078125 5.046875 -0.421875 C 4.367188 -0.773438 3.8125 -1.289062 3.375 -1.96875 L 3.375 3.859375 L 1.96875 3.859375 L 1.96875 -10.453125 L 3.3125 -10.453125 L 3.3125 -8.390625 C 3.738281 -9.078125 4.300781 -9.601562 5 -9.96875 C 5.695312 -10.34375 6.484375 -10.53125 7.359375 -10.53125 Z M 7.25 -1.15625 C 7.976562 -1.15625 8.640625 -1.320312 9.234375 -1.65625 C 9.835938 -2 10.304688 -2.476562 10.640625 -3.09375 C 10.984375 -3.71875 11.15625 -4.429688 11.15625 -5.234375 C 11.15625 -6.023438 10.984375 -6.726562 10.640625 -7.34375 C 10.304688 -7.957031 9.835938 -8.4375 9.234375 -8.78125 C 8.640625 -9.125 7.976562 -9.296875 7.25 -9.296875 C 6.507812 -9.296875 5.84375 -9.125 5.25 -8.78125 C 4.664062 -8.4375 4.203125 -7.957031 3.859375 -7.34375 C 3.523438 -6.726562 3.359375 -6.023438 3.359375 -5.234375 C 3.359375 -4.429688 3.523438 -3.71875 3.859375 -3.09375 C 4.203125 -2.476562 4.664062 -2 5.25 -1.65625 C 5.84375 -1.320312 6.507812 -1.15625 7.25 -1.15625 Z M 7.25 -1.15625" transform="translate(241.576 215.195)"/></g></g></g><g><g><g><path d="M 1.96875 -10.453125 L 3.375 -10.453125 L 3.375 0 L 1.96875 0 Z M 2.671875 -12.734375 C 2.378906 -12.734375 2.132812 -12.832031 1.9375 -13.03125 C 1.738281 -13.238281 1.640625 -13.476562 1.640625 -13.75 C 1.640625 -14.019531 1.738281 -14.253906 1.9375 -14.453125 C 2.132812 -14.648438 2.378906 -14.75 2.671875 -14.75 C 2.960938 -14.75 3.207031 -14.648438 3.40625 -14.453125 C 3.613281 -14.265625 3.71875 -14.035156 3.71875 -13.765625 C 3.71875 -13.484375 3.613281 -13.238281 3.40625 -13.03125 C 3.207031 -12.832031 2.960938 -12.734375 2.671875 -12.734375 Z M 2.671875 -12.734375" transform="translate(255.053 215.195)"/></g></g></g><g><g><g><path d="M 7.296875 -10.53125 C 8.609375 -10.53125 9.648438 -10.148438 10.421875 -9.390625 C 11.203125 -8.628906 11.59375 -7.519531 11.59375 -6.0625 L 11.59375 0 L 10.171875 0 L 10.171875 -5.921875 C 10.171875 -7.003906 9.898438 -7.832031 9.359375 -8.40625 C 8.816406 -8.976562 8.039062 -9.265625 7.03125 -9.265625 C 5.90625 -9.265625 5.015625 -8.925781 4.359375 -8.25 C 3.703125 -7.582031 3.375 -6.660156 3.375 -5.484375 L 3.375 0 L 1.96875 0 L 1.96875 -10.453125 L 3.3125 -10.453125 L 3.3125 -8.53125 C 3.695312 -9.164062 4.226562 -9.65625 4.90625 -10 C 5.59375 -10.351562 6.390625 -10.53125 7.296875 -10.53125 Z M 7.296875 -10.53125" transform="translate(260.4 215.195)"/></g></g></g><g><g><g><path d="M 11.640625 -10.453125 L 11.640625 -1.265625 C 11.640625 0.503906 11.207031 1.816406 10.34375 2.671875 C 9.476562 3.523438 8.171875 3.953125 6.421875 3.953125 C 5.453125 3.953125 4.53125 3.804688 3.65625 3.515625 C 2.789062 3.234375 2.085938 2.84375 1.546875 2.34375 L 2.265625 1.265625 C 2.765625 1.722656 3.375 2.078125 4.09375 2.328125 C 4.820312 2.578125 5.582031 2.703125 6.375 2.703125 C 7.707031 2.703125 8.679688 2.394531 9.296875 1.78125 C 9.921875 1.164062 10.234375 0.207031 10.234375 -1.09375 L 10.234375 -2.421875 C 9.796875 -1.765625 9.222656 -1.257812 8.515625 -0.90625 C 7.804688 -0.5625 7.019531 -0.390625 6.15625 -0.390625 C 5.175781 -0.390625 4.285156 -0.601562 3.484375 -1.03125 C 2.679688 -1.46875 2.050781 -2.070312 1.59375 -2.84375 C 1.144531 -3.625 0.921875 -4.503906 0.921875 -5.484375 C 0.921875 -6.460938 1.144531 -7.335938 1.59375 -8.109375 C 2.050781 -8.878906 2.675781 -9.472656 3.46875 -9.890625 C 4.269531 -10.316406 5.164062 -10.53125 6.15625 -10.53125 C 7.050781 -10.53125 7.851562 -10.347656 8.5625 -9.984375 C 9.28125 -9.628906 9.859375 -9.117188 10.296875 -8.453125 L 10.296875 -10.453125 Z M 6.296875 -1.65625 C 7.054688 -1.65625 7.738281 -1.816406 8.34375 -2.140625 C 8.957031 -2.460938 9.429688 -2.914062 9.765625 -3.5 C 10.109375 -4.082031 10.28125 -4.742188 10.28125 -5.484375 C 10.28125 -6.222656 10.109375 -6.878906 9.765625 -7.453125 C 9.429688 -8.035156 8.960938 -8.488281 8.359375 -8.8125 C 7.753906 -9.132812 7.066406 -9.296875 6.296875 -9.296875 C 5.546875 -9.296875 4.867188 -9.132812 4.265625 -8.8125 C 3.660156 -8.5 3.1875 -8.050781 2.84375 -7.46875 C 2.507812 -6.882812 2.34375 -6.222656 2.34375 -5.484375 C 2.34375 -4.742188 2.507812 -4.082031 2.84375 -3.5 C 3.1875 -2.914062 3.660156 -2.460938 4.265625 -2.140625 C 4.867188 -1.816406 5.546875 -1.65625 6.296875 -1.65625 Z M 6.296875 -1.65625" transform="translate(273.858 215.195)"/></g></g></g></svg>